<?xml version="1.0" standalone="no"?>
<!DOCTYPE svg PUBLIC "-//W3C//DTD SVG 20010904//EN"
 "http://www.w3.org/TR/2001/REC-SVG-20010904/DTD/svg10.dtd">
<svg version="1.0" xmlns="http://www.w3.org/2000/svg"
 width="512.000000pt" height="512.000000pt" viewBox="0 0 512.000000 512.000000"
 preserveAspectRatio="xMidYMid meet">

<g transform="translate(0.000000,512.000000) scale(0.100000,-0.100000)"
fill="#000000" stroke="none">
<path d="M2320 5109 c-185 -31 -467 -112 -571 -165 -89 -44 -133 -122 -127
-219 3 -50 16 -86 81 -219 47 -96 77 -171 77 -191 0 -38 -13 -51 -134 -130
-101 -66 -237 -177 -311 -255 -58 -61 -85 -73 -121 -60 -15 6 -87 58 -160 116
-73 57 -150 112 -171 120 -58 25 -160 16 -211 -19 -95 -63 -281 -399 -382
-694 -58 -166 -52 -243 23 -321 47 -49 72 -60 240 -98 201 -46 215 -51 231
-83 12 -22 13 -43 4 -107 -10 -78 -4 -443 8 -515 5 -29 1 -41 -18 -62 -20 -23
-49 -33 -197 -67 -95 -22 -192 -50 -215 -63 -52 -28 -103 -103 -112 -164 -5
-35 -1 -66 15 -121 82 -280 303 -693 409 -766 33 -24 56 -31 106 -34 35 -2 80
1 100 8 19 6 97 61 173 122 76 61 148 115 160 120 35 17 64 3 141 -67 83 -74
115 -82 157 -40 44 43 32 71 -66 162 -79 72 -114 92 -177 100 -83 9 -120 -8
-282 -137 -204 -162 -211 -161 -315 5 -82 130 -187 351 -236 493 -36 107 -40
126 -30 151 17 39 33 46 216 87 182 41 219 57 268 114 53 62 61 106 47 239 -9
77 -10 168 -5 289 4 97 7 200 7 228 0 85 -54 165 -133 198 -20 8 -108 31 -195
51 -169 38 -200 51 -210 91 -16 65 110 378 246 608 72 121 104 156 145 156 35
0 51 -10 220 -145 118 -95 146 -108 220 -108 78 0 110 17 210 113 104 99 216
187 335 264 118 77 150 125 150 228 0 60 -5 75 -80 227 -44 89 -80 175 -80
191 0 45 29 67 135 106 170 61 490 135 515 119 6 -4 10 -188 10 -485 l0 -479
-42 -11 c-199 -50 -383 -132 -531 -237 -45 -32 -124 -101 -177 -153 -205 -205
-338 -453 -401 -750 -32 -150 -32 -400 0 -550 63 -300 193 -542 401 -750 190
-190 425 -324 678 -385 l72 -17 0 -493 c0 -306 -4 -496 -10 -500 -25 -15 -346
58 -505 116 -97 35 -135 64 -135 102 0 14 39 107 87 208 77 165 86 190 87 245
1 85 -26 123 -148 203 -108 72 -146 80 -178 42 -19 -24 -24 -67 -10 -89 5 -6
46 -38 92 -70 46 -31 88 -64 93 -72 6 -11 -17 -70 -79 -204 -50 -110 -89 -207
-92 -232 -11 -98 49 -198 143 -239 140 -62 443 -143 601 -160 75 -9 139 15
175 66 21 30 24 47 27 147 l4 112 362 0 361 0 18 -48 c24 -70 86 -135 164
-174 55 -27 77 -32 137 -32 107 -1 168 24 243 99 53 53 64 71 83 134 18 57 21
86 16 129 -13 113 -80 213 -178 268 -49 27 -61 29 -153 29 -86 0 -107 -3 -150
-24 -82 -41 -146 -117 -179 -214 -5 -16 -29 -17 -363 -15 l-358 3 -3 202 -2
203 813 0 813 0 23 -55 c29 -71 96 -139 169 -173 46 -22 72 -26 137 -27 71 0
88 4 147 33 115 56 178 152 186 282 3 61 0 86 -18 134 -28 72 -95 147 -165
184 -44 24 -61 27 -150 27 -92 0 -104 -2 -153 -30 -69 -37 -137 -113 -159
-176 l-18 -49 -810 2 -810 3 -5 76 c-9 125 -39 151 -229 204 -417 115 -755
441 -884 851 -86 272 -82 572 9 826 118 328 352 591 657 739 75 36 208 82 314
109 48 12 97 50 118 91 9 17 15 57 15 104 l0 75 813 0 812 0 23 -54 c33 -76
80 -127 154 -167 59 -32 69 -34 153 -34 74 0 99 5 137 24 71 35 134 95 165
159 24 50 28 69 28 147 0 78 -4 97 -28 147 -35 72 -110 140 -185 168 -45 18
-72 21 -132 18 -90 -5 -151 -30 -212 -87 -40 -36 -98 -132 -98 -160 0 -8 -241
-10 -812 -9 l-813 3 -3 203 -2 202 359 0 360 0 27 -60 c31 -70 102 -141 172
-173 37 -17 66 -22 137 -22 79 0 96 4 143 28 70 37 128 97 160 166 22 46 26
71 26 136 0 65 -4 90 -26 136 -32 69 -90 129 -160 166 -47 24 -64 28 -143 28
-71 0 -100 -5 -137 -22 -70 -32 -141 -103 -172 -173 l-27 -60 -359 0 -358 0
-4 93 c-4 108 -24 147 -92 178 -44 20 -80 22 -166 8z m1383 -183 c57 -23 117
-111 117 -171 0 -60 -60 -148 -117 -171 -74 -31 -169 -4 -219 62 -26 33 -29
46 -29 109 0 63 3 76 29 109 50 66 145 93 219 62z m913 -565 c137 -62 137
-264 -1 -331 -128 -62 -276 40 -263 180 13 130 145 205 264 151z m28 -3244
c53 -41 79 -98 74 -163 -13 -156 -186 -225 -305 -121 -63 56 -80 134 -44 212
34 74 90 107 177 102 49 -2 69 -9 98 -30z m-924 -547 c108 -55 129 -203 41
-291 -88 -88 -236 -67 -291 41 -24 46 -26 129 -6 168 15 29 59 73 91 90 33 19
122 14 165 -8z"/>
<path d="M2465 3369 c-289 -41 -547 -249 -650 -522 -152 -407 47 -871 446
-1039 155 -65 123 -63 999 -63 898 0 859 -3 1035 79 286 134 465 417 465 736
0 322 -179 604 -470 738 -152 71 -177 74 -533 79 -341 5 -365 3 -386 -43 -15
-35 -14 -48 9 -77 l20 -25 328 -4 c363 -5 384 -8 522 -76 101 -49 231 -177
283 -279 214 -414 -39 -906 -500 -973 -95 -14 -1439 -13 -1539 1 -152 21 -275
82 -383 190 -79 78 -132 166 -168 274 -22 67 -26 98 -26 195 0 97 4 128 26
195 70 214 226 370 442 442 79 27 83 27 430 31 339 3 351 4 373 25 27 25 29
67 3 98 l-19 24 -324 1 c-177 1 -350 -2 -383 -7z"/>
<path d="M2325 2945 l-25 -24 0 -351 0 -351 25 -24 c24 -24 27 -25 185 -25
158 0 161 1 185 25 32 31 33 74 2 103 -21 20 -34 22 -135 22 l-112 0 0 85 0
85 85 0 c102 0 151 17 161 54 19 76 -27 106 -161 106 l-85 0 0 85 0 85 113 0
c106 0 115 2 135 23 29 31 28 72 -3 102 -24 24 -27 25 -185 25 -158 0 -161 -1
-185 -25z"/>
<path d="M3005 2945 l-25 -24 0 -351 0 -351 25 -24 c31 -32 74 -33 103 -2 19
20 22 36 24 136 l3 114 115 -132 c63 -72 125 -134 138 -137 36 -10 71 4 87 36
21 41 8 68 -78 164 -109 122 -104 113 -65 129 132 55 190 212 123 335 -56 103
-122 132 -302 132 -118 0 -125 -1 -148 -25z m293 -150 c35 -30 44 -62 26 -105
-17 -39 -65 -60 -139 -60 l-55 0 0 95 0 95 69 0 c59 0 74 -4 99 -25z"/>
<path d="M3791 2951 c-21 -21 -21 -29 -21 -381 0 -357 0 -359 22 -380 27 -25
69 -26 99 -1 22 18 24 27 27 139 l4 120 81 4 c94 5 156 28 205 78 98 97 105
245 16 348 -64 75 -97 86 -266 90 -138 4 -147 3 -167 -17z m295 -150 c46 -28
61 -80 37 -129 -24 -48 -71 -72 -145 -72 l-58 0 0 110 0 110 68 0 c48 0 76 -5
98 -19z"/>
</g>
</svg>
